<svg xmlns="http://www.w3.org/2000/svg" width="70" height="70" viewBox="0 0 70 70">
  <defs>
    <style>
      .cls-1 {
        fill: #f80a6f;
        fill-rule: evenodd;
      }
    </style>
  </defs>
  <path id="icon" class="cls-1" d="M782.292,3898.83a1.46,1.46,0,1,1-1.459,1.46A1.463,1.463,0,0,1,782.292,3898.83Zm5.833,0a1.46,1.46,0,1,1-1.458,1.46A1.463,1.463,0,0,1,788.125,3898.83Zm5.833,0a1.46,1.46,0,1,1-1.458,1.46A1.463,1.463,0,0,1,793.958,3898.83Zm6.768,35.34L793.32,3928l7.406-6.17a1.459,1.459,0,1,0-1.869-2.24l-8.75,7.29a1.459,1.459,0,0,0,0,2.24l8.75,7.29a1.443,1.443,0,0,0,.933.34A1.458,1.458,0,0,0,800.726,3934.17Zm12.528,2.06a1.472,1.472,0,0,0,1.122.52,1.441,1.441,0,0,0,.933-0.34l8.75-7.29a1.459,1.459,0,0,0,0-2.24l-8.75-7.29a1.458,1.458,0,1,0-1.868,2.24l7.4,6.17-7.406,6.17A1.466,1.466,0,0,0,813.254,3936.23Zm-1.222-19.78a1.467,1.467,0,0,0-1.914.77l-8.75,20.41a1.458,1.458,0,1,0,2.68,1.15l8.75-20.41A1.464,1.464,0,0,0,812.032,3916.45Zm31.864,26.18-2.794-.7,1.481-2.47a1.457,1.457,0,0,0-.22-1.78l-3.2-3.2v-35.65a5.841,5.841,0,0,0-5.833-5.83h-52.5a5.841,5.841,0,0,0-5.833,5.83v52.5a5.843,5.843,0,0,0,5.833,5.84h35.648l3.2,3.19a1.469,1.469,0,0,0,1.782.22l2.469-1.48,0.7,2.79a1.462,1.462,0,0,0,1.415,1.11h5.833a1.461,1.461,0,0,0,1.414-1.11l0.7-2.79,2.47,1.48a1.454,1.454,0,0,0,1.781-.22l4.125-4.12a1.468,1.468,0,0,0,.219-1.79l-1.481-2.46,2.794-.7a1.462,1.462,0,0,0,1.1-1.42v-5.83A1.451,1.451,0,0,0,843.9,3942.63Zm-65.979-43.8a2.913,2.913,0,0,1,2.916-2.91h52.5a2.914,2.914,0,0,1,2.917,2.91v5.84H777.917v-5.84Zm37.539,55.42H780.833a2.921,2.921,0,0,1-2.916-2.92v-43.75H836.25v25.88l-2.262,1.36-0.7-2.8a1.453,1.453,0,0,0-1.414-1.1h-5.834a1.452,1.452,0,0,0-1.414,1.1l-0.7,2.8-2.47-1.49a1.468,1.468,0,0,0-1.781.22l-4.125,4.13a1.455,1.455,0,0,0-.219,1.78l1.481,2.47-2.794.7a1.451,1.451,0,0,0-1.1,1.41v5.83a1.462,1.462,0,0,0,1.1,1.42l2.794,0.7Zm26.627-5.52-2.5.63a1.458,1.458,0,0,0-1.023.94,10.6,10.6,0,0,1-.444,1.09,1.467,1.467,0,0,0,.061,1.39l1.323,2.2-2.513,2.51-2.206-1.32a1.458,1.458,0,0,0-1.389-.06,10.4,10.4,0,0,1-1.095.45,1.439,1.439,0,0,0-.928,1.02l-0.627,2.5H827.18l-0.627-2.5a1.439,1.439,0,0,0-.929-1.02,10.573,10.573,0,0,1-1.1-.45,1.484,1.484,0,0,0-1.388.06l-2.206,1.32-2.514-2.51,1.323-2.2a1.464,1.464,0,0,0,.062-1.39,10.608,10.608,0,0,1-.445-1.09,1.457,1.457,0,0,0-1.022-.94l-2.505-.63v-3.55l2.505-.63a1.464,1.464,0,0,0,1.022-.93,9.763,9.763,0,0,1,.445-1.09,1.461,1.461,0,0,0-.062-1.39l-1.323-2.21,2.514-2.51,2.206,1.32a1.457,1.457,0,0,0,1.388.07,8.747,8.747,0,0,1,1.1-.45,1.457,1.457,0,0,0,.929-1.02l0.627-2.51h3.557l0.627,2.51a1.458,1.458,0,0,0,.928,1.02,8.625,8.625,0,0,1,1.095.45,1.459,1.459,0,0,0,1.389-.07l2.206-1.32,2.513,2.51-1.323,2.21a1.464,1.464,0,0,0-.061,1.39,9.757,9.757,0,0,1,.444,1.09,1.465,1.465,0,0,0,1.023.93l2.5,0.63v3.55Zm-13.125-9.06a7.29,7.29,0,1,0,7.292,7.29A7.3,7.3,0,0,0,828.958,3939.67Zm0,11.66a4.375,4.375,0,1,1,4.375-4.37A4.377,4.377,0,0,1,828.958,3951.33Z" transform="translate(-775 -3893)"/>
</svg>
