<svg xmlns="http://www.w3.org/2000/svg" width="130.288" height="77.911" viewBox="0 0 130.288 77.911">
  <g id="aws-2" transform="translate(-1.668 -1.1)">
    <path id="Path_113978" data-name="Path 113978" d="M45.429,29.4a13.111,13.111,0,0,0,.477,3.857,23.2,23.2,0,0,0,1.387,3.12,1.885,1.885,0,0,1,.3,1,1.716,1.716,0,0,1-.823,1.3l-2.73,1.82a2.078,2.078,0,0,1-1.127.39,1.994,1.994,0,0,1-1.3-.607,13.406,13.406,0,0,1-1.56-2.037c-.433-.737-.867-1.56-1.343-2.557a16.008,16.008,0,0,1-12.74,5.98,11.873,11.873,0,0,1-8.666-3.12,11.132,11.132,0,0,1-3.207-8.32,11.155,11.155,0,0,1,3.943-8.926c2.643-2.253,6.153-3.38,10.616-3.38a34.309,34.309,0,0,1,4.593.347c1.6.217,3.25.563,4.983.953V16.05c0-3.293-.693-5.59-2.037-6.933-1.387-1.343-3.727-1.993-7.063-1.993a19.716,19.716,0,0,0-4.68.563,34.528,34.528,0,0,0-4.68,1.473,12.433,12.433,0,0,1-1.517.563,2.658,2.658,0,0,1-.693.13c-.607,0-.91-.433-.91-1.343V6.387a2.742,2.742,0,0,1,.3-1.517,3.245,3.245,0,0,1,1.213-.91,24.947,24.947,0,0,1,5.46-1.95,26.271,26.271,0,0,1,6.76-.823c5.157,0,8.926,1.17,11.353,3.51,2.383,2.34,3.6,5.893,3.6,10.66V29.4ZM27.836,35.983A14.044,14.044,0,0,0,32.3,35.2a9.656,9.656,0,0,0,4.117-2.773,6.878,6.878,0,0,0,1.473-2.773,15.556,15.556,0,0,0,.433-3.77v-1.82a36.188,36.188,0,0,0-3.987-.737,32.652,32.652,0,0,0-4.073-.26c-2.9,0-5.027.563-6.457,1.733a6.04,6.04,0,0,0-2.123,4.983,6.049,6.049,0,0,0,1.6,4.593,6.009,6.009,0,0,0,4.55,1.6Zm34.8,4.68a2.419,2.419,0,0,1-1.647-.433,3.532,3.532,0,0,1-.91-1.69L49.893,5.043A7.591,7.591,0,0,1,49.5,3.31a.951.951,0,0,1,1.04-1.083h4.247a2.4,2.4,0,0,1,1.69.433,3.545,3.545,0,0,1,.867,1.69l7.28,28.686L71.385,4.35a3.039,3.039,0,0,1,.823-1.69,2.981,2.981,0,0,1,1.733-.433h3.467a2.608,2.608,0,0,1,1.733.433,2.92,2.92,0,0,1,.823,1.69l6.847,29.033,7.5-29.033a3.716,3.716,0,0,1,.867-1.69,2.827,2.827,0,0,1,1.69-.433h4.03a.963.963,0,0,1,1.083,1.083,4.321,4.321,0,0,1-.087.693,6.165,6.165,0,0,1-.3,1.083l-10.443,33.5a3.323,3.323,0,0,1-.91,1.69,2.772,2.772,0,0,1-1.647.433H84.862a2.608,2.608,0,0,1-1.733-.433,3.072,3.072,0,0,1-.823-1.733L75.589,10.59,68.916,38.5a3.382,3.382,0,0,1-.823,1.733,2.686,2.686,0,0,1-1.733.433Zm55.682,1.17a28.675,28.675,0,0,1-6.673-.78,19.713,19.713,0,0,1-4.983-1.733,3.122,3.122,0,0,1-1.343-1.213,3.059,3.059,0,0,1-.26-1.213v-2.21c0-.91.347-1.343,1-1.343a2.454,2.454,0,0,1,.78.13c.26.087.65.26,1.083.433a23.57,23.57,0,0,0,4.767,1.517,26.023,26.023,0,0,0,5.157.52,11.691,11.691,0,0,0,6.327-1.43,4.666,4.666,0,0,0,2.253-4.117,4.22,4.22,0,0,0-1.17-3.033,10.872,10.872,0,0,0-4.377-2.253l-6.283-1.95a13.217,13.217,0,0,1-6.933-4.42,10.324,10.324,0,0,1-2.167-6.283,9.644,9.644,0,0,1,1.17-4.81,11.142,11.142,0,0,1,3.12-3.553,13.753,13.753,0,0,1,4.507-2.253,18.886,18.886,0,0,1,5.46-.737,21.753,21.753,0,0,1,2.9.173c1,.13,1.907.3,2.817.477.867.217,1.69.433,2.47.693a9.457,9.457,0,0,1,1.82.78,3.747,3.747,0,0,1,1.3,1.083,2.335,2.335,0,0,1,.39,1.43V7.773c0,.91-.347,1.387-1,1.387a4.507,4.507,0,0,1-1.647-.52,19.824,19.824,0,0,0-8.32-1.69,11.184,11.184,0,0,0-5.763,1.213,4.184,4.184,0,0,0-2.037,3.857,4.092,4.092,0,0,0,1.3,3.077,12.943,12.943,0,0,0,4.767,2.383l6.153,1.95c3.12,1,5.373,2.383,6.717,4.16a9.805,9.805,0,0,1,1.993,6.067,11.14,11.14,0,0,1-1.127,5.027,11.654,11.654,0,0,1-3.163,3.813,13.968,13.968,0,0,1-4.81,2.427,20.605,20.605,0,0,1-6.2.91Z" transform="translate(-7.045)" fill="#252f3e"/>
    <g id="Group_49855" data-name="Group 49855" transform="translate(1.668 49.672)">
      <path id="Path_113979" data-name="Path 113979" d="M119.459,129.784C105.2,140.314,84.49,145.9,66.681,145.9a95.483,95.483,0,0,1-64.435-24.57c-1.343-1.213-.13-2.86,1.473-1.907A129.948,129.948,0,0,0,68.2,136.544a128.669,128.669,0,0,0,49.182-10.053C119.763,125.408,121.8,128.051,119.459,129.784Z" transform="translate(-1.668 -116.564)" fill="#f90" fill-rule="evenodd"/>
      <path id="Path_113980" data-name="Path 113980" d="M263.845,119.652c-1.82-2.34-12.046-1.127-16.683-.563-1.387.173-1.6-1.04-.347-1.95,8.147-5.72,21.536-4.073,23.1-2.167,1.56,1.95-.433,15.34-8.06,21.753-1.17,1-2.3.477-1.777-.823C261.809,131.612,265.665,121.949,263.845,119.652Z" transform="translate(-140.117 -113.192)" fill="#f90" fill-rule="evenodd"/>
    </g>
  </g>
</svg>
