<svg id="bootstrap-4" xmlns="http://www.w3.org/2000/svg" width="71.057" height="71.057" viewBox="0 0 71.057 71.057">
  <path id="Path_113958" data-name="Path 113958" d="M0,61.894a9.162,9.162,0,0,0,9.162,9.162H61.894a9.162,9.162,0,0,0,9.162-9.162V9.162A9.162,9.162,0,0,0,61.894,0H9.162A9.162,9.162,0,0,0,0,9.162V61.894Z" fill="#563d7c"/>
  <path id="Path_113959" data-name="Path 113959" d="M81.535,67.914V57.851h8.857a13.777,13.777,0,0,1,2.44.211,6.091,6.091,0,0,1,2.079.753,4.017,4.017,0,0,1,1.446,1.506,5,5,0,0,1,.542,2.47,4.551,4.551,0,0,1-1.627,3.917,6.8,6.8,0,0,1-4.158,1.205h-9.58ZM72.075,50.5V93.523H92.923a22,22,0,0,0,5.634-.723,15.068,15.068,0,0,0,4.881-2.229,10.982,10.982,0,0,0,3.4-3.886,13.151,13.151,0,0,0-.693-12.533,10.341,10.341,0,0,0-5.935-4.007,10.723,10.723,0,0,0,4.369-3.555,9.425,9.425,0,0,0,1.476-5.423,11.54,11.54,0,0,0-.994-5.061,8.268,8.268,0,0,0-2.8-3.284,12.093,12.093,0,0,0-4.338-1.778,26.783,26.783,0,0,0-5.6-.542Zm9.46,35.671V74.361h10.3a7.971,7.971,0,0,1,4.941,1.416q1.868,1.416,1.868,4.73a5.913,5.913,0,0,1-.573,2.772A4.547,4.547,0,0,1,96.539,85a6.507,6.507,0,0,1-2.229.9,12.65,12.65,0,0,1-2.651.271Z" transform="translate(-52.069 -36.483)" fill="#fff"/>
</svg>
