<svg id="Layer_1" enable-background="new 0 0 256 256" height="512" viewBox="0 0 256 256" width="512" xmlns="http://www.w3.org/2000/svg"><path d="m45.792 22v12.25h122.5v-12.25c0-7.732-6.268-14-14-14h-94.5c-7.732 0-14 6.268-14 14z" fill="#4671c6"/><path d="m168.292 204v-12.25h-122.5v12.25c0 7.732 6.268 14 14 14h94.5c7.732 0 14-6.268 14-14z" fill="#4671c6"/><path d="m117.542 211.875h-21c-2.899 0-5.25-2.351-5.25-5.25v-3.5c0-2.899 2.351-5.25 5.25-5.25h21c2.899 0 5.25 2.351 5.25 5.25v3.5c0 2.899-2.35 5.25-5.25 5.25z" fill="#a4c9ff"/><path d="m120.167 25.5h-26.25c-2.416 0-4.375-1.959-4.375-4.375 0-2.416 1.959-4.375 4.375-4.375h26.25c2.416 0 4.375 1.959 4.375 4.375 0 2.416-1.959 4.375-4.375 4.375z" fill="#e0ebfc"/><path d="m168.292 36.25h-122.5c-1.104 0-2-.896-2-2v-12.25c0-8.822 7.178-16 16-16h94.5c8.822 0 16 7.178 16 16v12.25c0 1.104-.896 2-2 2zm-120.5-4h118.5v-10.25c0-6.617-5.383-12-12-12h-94.5c-6.617 0-12 5.383-12 12z" fill="#3762cc"/><path d="m154.292 220h-94.5c-8.822 0-16-7.178-16-16v-12.25c0-1.104.896-2 2-2h122.5c1.104 0 2 .896 2 2v12.25c0 8.822-7.178 16-16 16zm-106.5-26.25v10.25c0 6.617 5.383 12 12 12h94.5c6.617 0 12-5.383 12-12v-10.25z" fill="#3762cc"/><path d="m45.792 34.25h122.5v157.5h-122.5z" fill="#6bdddd"/><path d="m168.292 193.75h-122.5c-1.104 0-2-.896-2-2v-157.5c0-1.104.896-2 2-2h122.5c1.104 0 2 .896 2 2v157.5c0 1.104-.896 2-2 2zm-120.5-4h118.5v-153.5h-118.5z" fill="#3762cc"/><path d="m129.798 130.583h-45.512c-6.714 0-12.157-5.443-12.157-12.157v-43.019c0-6.714 5.443-12.157 12.157-12.157h45.512c6.714 0 12.157 5.443 12.157 12.157v43.019c.001 6.714-5.442 12.157-12.157 12.157z" fill="#f9a7a7"/><circle cx="107.042" cy="96.916" fill="#e0ebfc" r="25.667"/><path d="m163.16 248v-20.832c7.728-4.773 12.881-13.317 12.881-23.068v-23.695-33.295c0-2.813-2.281-5.094-5.094-5.094h-9.618c-2.813 0-5.094 2.281-5.094 5.094 0-2.813-2.281-5.094-5.094-5.094h-9.618c-2.813 0-5.094 2.281-5.094 5.094 0-2.813-2.281-5.094-5.094-5.094h-9.618c-2.814 0-5.094 2.281-5.094 5.094v-45.519c0-5.291-4.289-9.579-9.579-9.579h-.648c-5.291 0-9.579 4.289-9.579 9.579v51.722 42.221 8.565c0 9.751 5.152 18.295 12.881 23.068v20.833z" fill="#f9cfcf"/><path d="m96.815 204.1v-8.565-34.518l-9.74 13.076c-.754 1.013-1.16 2.224-1.16 3.465v16.706c0 1.173.361 2.319 1.04 3.298l12.297 17.75c-1.557-3.418-2.437-7.21-2.437-11.212z" fill="#f9cfcf"/><g fill="#3762cc"><path d="m163.16 250h-53.464c-1.104 0-2-.896-2-2v-19.742c-8.087-5.425-12.881-14.374-12.881-24.158v-102.509c0-6.385 5.194-11.579 11.579-11.579h.647c6.385 0 11.579 5.194 11.579 11.579v39.136c.936-.456 1.986-.711 3.095-.711h9.618c1.997 0 3.804.829 5.094 2.162 1.291-1.333 3.098-2.162 5.095-2.162h9.618c1.997 0 3.804.829 5.094 2.162 1.291-1.333 3.098-2.162 5.095-2.162h9.618c3.911 0 7.094 3.183 7.094 7.094v56.99c0 9.785-4.794 18.733-12.881 24.158v19.742c0 1.104-.895 2-2 2zm-51.464-4h49.464v-18.832c0-.693.359-1.337.949-1.702 7.471-4.614 11.932-12.602 11.932-21.366v-56.99c0-1.706-1.388-3.094-3.094-3.094h-9.618c-1.706 0-3.095 1.388-3.095 3.094 0 1.104-.896 2-2 2s-2-.896-2-2c0-1.706-1.388-3.094-3.094-3.094h-9.618c-1.706 0-3.095 1.388-3.095 3.094 0 1.104-.896 2-2 2s-2-.896-2-2c0-1.706-1.388-3.094-3.094-3.094h-9.618c-1.706 0-3.095 1.388-3.095 3.094 0 1.104-.896 2-2 2s-2-.896-2-2v-45.519c0-4.179-3.4-7.579-7.579-7.579h-.647c-4.179 0-7.579 3.4-7.579 7.579v102.509c0 8.765 4.461 16.752 11.932 21.366.59.364.949 1.008.949 1.702z"/><path d="m99.253 217.312c-.637 0-1.259-.304-1.645-.861l-12.296-17.751c-.914-1.317-1.396-2.852-1.396-4.438v-16.705c0-1.683.538-3.294 1.557-4.661l9.74-13.075c.515-.692 1.418-.974 2.232-.704.818.271 1.371 1.037 1.371 1.898v43.085c-.001 3.601.759 7.094 2.257 10.381.429.942.068 2.057-.832 2.568-.312.178-.652.263-.988.263zm-4.438-50.263-6.137 8.237c-.499.671-.764 1.456-.764 2.271v16.705c0 .767.236 1.514.684 2.159l6.247 9.017c-.021-.444-.03-.891-.03-1.339zm2 37.051h.01z"/><path d="m116.621 164.679c-1.104 0-2-.896-2-2v-15.569c0-1.104.896-2 2-2s2 .896 2 2v15.569c0 1.105-.895 2-2 2z"/><path d="m136.428 164.679c-1.104 0-2-.896-2-2v-15.569c0-1.104.896-2 2-2s2 .896 2 2v15.569c0 1.105-.896 2-2 2z"/><path d="m156.213 164.679c-1.104 0-2-.896-2-2v-15.569c0-1.104.896-2 2-2s2 .896 2 2v15.569c0 1.105-.896 2-2 2z"/></g><path d="m205.208 75.833h-58.333c-2.761 0-5-2.239-5-5v-41.833c0-2.761 2.239-5 5-5h58.333c2.761 0 5 2.239 5 5v41.833c0 2.762-2.239 5-5 5z" fill="#a4c9ff"/><path d="m170.593 66.605c-1.259 0-2.476-.475-3.407-1.344l-19.19-17.901c-1.212-1.13-1.278-3.029-.147-4.24 1.131-1.21 3.028-1.277 4.239-.147l18.334 17.102 16.435-24.413c.877-1.304 2.28-2.105 3.849-2.199 1.577-.091 3.057.535 4.082 1.723l9.524 11.019c1.084 1.253.945 3.148-.308 4.231-1.254 1.083-3.148.947-4.231-.308l-8.67-10.03-16.358 24.299c-.819 1.217-2.124 2.009-3.58 2.175-.192.023-.383.033-.572.033z" fill="#e0ebfc"/><path d="m205.208 77.833h-58.334c-3.859 0-7-3.14-7-7v-41.833c0-3.86 3.141-7 7-7h58.334c3.859 0 7 3.14 7 7v41.833c0 3.86-3.141 7-7 7zm-58.334-51.833c-1.654 0-3 1.346-3 3v41.833c0 1.654 1.346 3 3 3h58.334c1.654 0 3-1.346 3-3v-41.833c0-1.654-1.346-3-3-3z" fill="#3762cc"/></svg>