<svg xmlns="http://www.w3.org/2000/svg" width="72.137" height="101.822" viewBox="0 0 72.137 101.822">
  <g id="html-5" transform="translate(-0.445)">
    <path id="Path_113942" data-name="Path 113942" d="M72.582,70.766,66.01,144.388l-29.541,8.19L7.01,144.4.445,70.766H72.582Z" transform="translate(0 -50.756)" fill="#e44d26"/>
    <path id="Path_113943" data-name="Path 113943" d="M128,161.588l23.87-6.618,5.616-62.913H128Z" transform="translate(-91.486 -66.026)" fill="#f16529"/>
    <path id="Path_113944" data-name="Path 113944" d="M57.786,133.026H70.562V124H47.917l.216,2.423,2.22,24.886H70.562v-9.031H58.612Zm2.035,22.794H50.756L52.021,170l18.5,5.135.042-.011v-9.4l-.04.01-10.058-2.716-.643-7.2Z" transform="translate(-34.048 -88.933)" fill="#ebebeb"/>
    <path id="Path_113945" data-name="Path 113945" d="M24.18,0h4.589V4.534h4.2V0h4.59V13.731H32.968v-4.6h-4.2v4.6H24.18V0ZM43.592,4.553h-4.04V0H52.224V4.553H48.182v9.177H43.593V4.553h0ZM54.235,0h4.785l2.944,4.825L64.905,0h4.787V13.731H65.122V6.925l-3.157,4.882h-.079L58.726,6.925v6.806h-4.49ZM71.976,0h4.591V9.192h6.454v4.538H71.976V0Z" transform="translate(-17.023)"/>
    <path id="Path_113946" data-name="Path 113946" d="M127.889,151.3h11.12l-1.048,11.712-10.072,2.719v9.4L146.4,170l.136-1.526,2.122-23.775.22-2.425H127.889V151.3Zm0-18.3v.022H149.7l.181-2.03.412-4.578.216-2.423H127.889V133Z" transform="translate(-91.407 -88.933)" fill="#fff"/>
  </g>
</svg>
