<svg id="Capa_1" enable-background="new 0 0 512 512" height="512" viewBox="0 0 512 512" width="512" xmlns="http://www.w3.org/2000/svg"><g><path d="m384.736 373.117-83.736-21.117h-90l-83.736 21.117c-50.791 13.108-86.264 58.898-86.264 111.353v12.53c0 8.284 6.716 15 15 15h65l15-20 15 20h210l15-20 15 20h65c8.284 0 15-6.716 15-15v-12.53c0-52.455-35.473-98.245-86.264-111.353z" fill="#ffe278"/><path d="m384.736 373.117-83.736-21.117h-45v160h105l15-20 15 20h65c8.284 0 15-6.716 15-15v-12.53c0-52.455-35.473-98.245-86.264-111.353z" fill="#ffb454"/><path d="m391 512h-30v-55c0-8.284 6.716-15 15-15 8.284 0 15 6.716 15 15z" fill="#ff7038"/><path d="m151 512h-30v-55c0-8.284 6.716-15 15-15 8.284 0 15 6.716 15 15z" fill="#ffb454"/><path d="m211 317v44.568c0 3.866 1.511 7.567 4.162 10.38 22.058 23.403 59.618 23.403 81.676 0 2.651-2.813 4.162-6.514 4.162-10.38v-44.568z" fill="#ffddce"/><path d="m256 389.5c14.904 0 29.809-5.851 40.838-17.552 2.651-2.813 4.162-6.514 4.162-10.38v-44.568h-45z" fill="#ffbca7"/><path d="m467 332h-422c-24.813 0-45-20.187-45-45v-242c0-24.813 20.187-45 45-45h422c24.813 0 45 20.187 45 45v242c0 24.813-20.187 45-45 45z" fill="#f4f4f6"/><path d="m467 0h-211v332h211c24.813 0 45-20.187 45-45v-242c0-24.813-20.187-45-45-45z" fill="#e2dff4"/><path d="m45 30c-8.271 0-15 6.729-15 15v242c0 8.271 6.729 15 15 15h422c8.271 0 15-6.729 15-15v-242c0-8.271-6.729-15-15-15z" fill="#ff7038"/><path d="m467 30h-211v272h211c8.271 0 15-6.729 15-15v-242c0-8.271-6.729-15-15-15z" fill="#ff1f3d"/><path d="m141.886 200.916c-.028 0-.058 0-.086 0-6.785.038-13.934.066-19.933.078v-84.994c0-8.284-6.716-15-15-15s-15 6.716-15 15v99.916c0 7.307 5.265 13.55 12.466 14.784 1.08.186 1.794.309 12.96.309 5.387 0 13.209-.029 24.674-.093 8.284-.047 14.962-6.8 14.916-15.084-.046-8.256-6.752-14.916-14.997-14.916z" fill="#f4f4f6"/><path d="m191.888 101c-8.284 0-15 6.716-15 15v100c0 8.284 6.716 15 15 15s15-6.716 15-15v-100c0-8.284-6.716-15-15-15z" fill="#f4f4f6"/><path d="m405.133 201h-27.136v-20h24.029c8.284 0 15-6.716 15-15s-6.716-15-15-15h-24.029v-20h27.136c8.284 0 15-6.716 15-15s-6.716-15-15-15h-42.136c-8.284 0-15 6.716-15 15v100c0 8.284 6.716 15 15 15h42.136c8.284 0 15-6.716 15-15s-6.716-15-15-15z" fill="#e2dff4"/><path d="m317.725 101.948c-7.858-2.611-16.352 1.644-18.964 9.507l-20.818 62.665-21.882-63.039c-2.716-7.826-11.262-11.964-19.089-9.252-7.826 2.717-11.968 11.264-9.251 19.09l34.19 98.498c.012.034.023.067.036.102 2.444 6.88 8.969 11.481 16.261 11.481.04 0 .079 0 .118-.001 7.34-.05 13.859-4.753 16.221-11.702.011-.032.022-.065.033-.099l32.651-98.286c2.611-7.861-1.645-16.351-9.506-18.964z" fill="#f4f4f6"/><path d="m317.725 101.948c-7.858-2.611-16.352 1.644-18.964 9.507l-20.818 62.665-21.882-63.039c-.018-.052-.043-.099-.061-.151v91.46l5.91 17.027c.012.034.023.067.036.102 2.444 6.88 8.969 11.481 16.261 11.481.04 0 .079 0 .118-.001 7.34-.05 13.859-4.753 16.221-11.702.011-.032.022-.065.033-.099l32.651-98.286c2.612-7.861-1.644-16.351-9.505-18.964z" fill="#e2dff4"/></g></svg>