<svg xmlns="http://www.w3.org/2000/svg" width="247.358" height="69.851" viewBox="0 0 247.358 69.851">
  <g id="nodejs" transform="translate(-0.857 -0.383)">
    <g id="Group_49854" data-name="Group 49854" transform="translate(208.592 25.174)">
      <path id="Path_113974" data-name="Path 113974" d="M449.923,51.611a3.431,3.431,0,0,0-1.706.418l-16.4,9.471a3.457,3.457,0,0,0-1.706,3V83.4a3.458,3.458,0,0,0,1.706,2.994l4.283,2.472a7,7,0,0,0,3.8,1.009c3.081,0,4.84-1.869,4.84-5.118V66.1a.468.468,0,0,0-.487-.452h-2.054a.466.466,0,0,0-.487.452V84.76c0,1.44-1.5,2.888-3.934,1.671l-4.457-2.611a.491.491,0,0,1-.279-.418V64.494a.552.552,0,0,1,.279-.452l16.365-9.435a.483.483,0,0,1,.487,0l16.366,9.436a.556.556,0,0,1,.279.453V83.4a.526.526,0,0,1-.244.452l-16.4,9.436a.5.5,0,0,1-.487,0l-4.213-2.507a.438.438,0,0,0-.418,0,10.848,10.848,0,0,1-2.472,1.114c-.269.094-.677.24.139.7l5.5,3.238a3.441,3.441,0,0,0,3.412,0l16.4-9.436a3.462,3.462,0,0,0,1.706-2.994V64.495A3.457,3.457,0,0,0,468.03,61.5l-16.4-9.471a3.414,3.414,0,0,0-1.706-.418Z" transform="translate(-430.111 -51.611)" fill="#83cd29"/>
      <path id="Path_113975" data-name="Path 113975" d="M471.576,79.528c-4.67,0-7.451,1.988-7.451,5.293,0,3.585,2.76,4.57,7.243,5.014,5.362.525,5.78,1.312,5.78,2.368,0,1.831-1.46,2.611-4.909,2.611-4.335,0-5.287-1.082-5.606-3.238a.473.473,0,0,0-.453-.418h-2.124a.5.5,0,0,0-.487.488c0,2.76,1.5,6.024,8.67,6.024,5.189,0,8.182-2.037,8.182-5.606,0-3.538-2.418-4.488-7.452-5.153-5.086-.673-5.571-1-5.571-2.194,0-.983.411-2.3,4.178-2.3,3.365,0,4.609.726,5.119,3a.476.476,0,0,0,.453.383h2.125a.514.514,0,0,0,.348-.174.457.457,0,0,0,.139-.348c-.329-3.907-2.935-5.745-8.183-5.745Z" transform="translate(-447.377 -66.018)" fill="#83cd29"/>
    </g>
    <path id="Path_113976" data-name="Path 113976" d="M131.988.383a1.042,1.042,0,0,0-1.045,1.044V28.064a.7.7,0,0,1-.348.627.726.726,0,0,1-.731,0l-4.353-2.507a2.086,2.086,0,0,0-2.089,0L106.048,36.212A2.14,2.14,0,0,0,105,38.058V58.114a2.084,2.084,0,0,0,1.044,1.81l17.375,10.028a2.081,2.081,0,0,0,2.089,0l17.375-10.028a2.085,2.085,0,0,0,1.045-1.81v-50a2.123,2.123,0,0,0-1.079-1.846L132.511.487a1.016,1.016,0,0,0-.522-.1ZM20.217,25.418a1.962,1.962,0,0,0-.94.243L1.9,35.69A2.081,2.081,0,0,0,.857,37.5L.892,64.417a1.027,1.027,0,0,0,.522.9,1.014,1.014,0,0,0,1.045,0L12.765,59.4a2.128,2.128,0,0,0,1.079-1.811V45.022a2.078,2.078,0,0,1,1.045-1.811l4.387-2.542a2.1,2.1,0,0,1,2.089,0l4.387,2.542A2.079,2.079,0,0,1,26.8,45.022V57.591A2.131,2.131,0,0,0,27.877,59.4l10.307,5.92a1.014,1.014,0,0,0,1.045,0,1.047,1.047,0,0,0,.523-.905L39.785,37.5a2.071,2.071,0,0,0-1.044-1.81L21.366,25.662a1.951,1.951,0,0,0-.94-.243Zm156.132.243a2.084,2.084,0,0,0-1.044.279L157.929,35.969a2.084,2.084,0,0,0-1.045,1.81V57.835a2.1,2.1,0,0,0,1.079,1.811L175.2,69.465a2.09,2.09,0,0,0,2.054.034L187.7,63.685a1.056,1.056,0,0,0,.557-.9,1.029,1.029,0,0,0-.522-.905l-17.48-10.028a1.125,1.125,0,0,1-.557-.94V44.638a1.074,1.074,0,0,1,.557-.905l5.432-3.134a1.043,1.043,0,0,1,1.045,0l5.431,3.134a1.041,1.041,0,0,1,.523.9v4.944a1.044,1.044,0,0,0,1.567.9l10.412-6.058a2.093,2.093,0,0,0,1.045-1.811V37.78a2.09,2.09,0,0,0-1.045-1.811L177.393,25.94a2.071,2.071,0,0,0-1.045-.278ZM124.4,40.634a.583.583,0,0,1,.279.069l5.954,3.447a.54.54,0,0,1,.279.452V51.5a.538.538,0,0,1-.279.453L124.676,55.4a.527.527,0,0,1-.522,0L118.2,51.95a.539.539,0,0,1-.279-.453V44.6a.541.541,0,0,1,.279-.452l5.954-3.447a.459.459,0,0,1,.244-.069h0Z" fill="#404137"/>
    <path id="Path_113977" data-name="Path 113977" d="M127.958,52.4a2.083,2.083,0,0,0-1.044.279l-17.375,9.993a2.138,2.138,0,0,0-1.045,1.845V84.576a2.084,2.084,0,0,0,1.045,1.811l17.375,10.028a2.079,2.079,0,0,0,2.089,0l17.375-10.028a2.085,2.085,0,0,0,1.044-1.811V64.519a2.138,2.138,0,0,0-1.044-1.845L129,52.681A2.079,2.079,0,0,0,127.958,52.4Zm103.9,17.9a.427.427,0,0,0-.209.035l-3.343,1.95a.406.406,0,0,0-.209.348v3.83a.407.407,0,0,0,.209.348l3.343,1.915a.364.364,0,0,0,.383,0l3.343-1.915a.409.409,0,0,0,.209-.348v-3.83a.409.409,0,0,0-.209-.348l-3.343-1.95a.29.29,0,0,0-.174-.034Z" transform="translate(-55.547 -26.845)" fill="#83cd29"/>
  </g>
</svg>
