<svg id="javascript-4" xmlns="http://www.w3.org/2000/svg" width="71.41" height="100.521" viewBox="0 0 71.41 100.521">
  <path id="Path_113960" data-name="Path 113960" d="M71.41,489.9H0l6.695,72.6L35.7,570.723,64.707,562.5Z" transform="translate(0 -470.202)" fill="#e6a329"/>
  <path id="Path_113961" data-name="Path 113961" d="M887.9,637v68.756l23.5-6.659,5.718-62.1Z" transform="translate(-852.199 -611.387)" fill="#f1bf22"/>
  <path id="Path_113962" data-name="Path 113962" d="M430.252,858.5H394.117L391.6,885.681l.052-.169h30.7l-1,11.5-9.795,2.819-9.939-2.863-.6-6.96H392l1.287,13.908,18.271,5.187,18.279-5.187,2.517-27.3H399.77l.418-9.1h22.605l.338,5.211h9.1Z" transform="translate(-375.854 -823.981)" fill="#fff"/>
  <path id="Path_113963" data-name="Path 113963" d="M411.563,858.5H394.117L391.6,885.681l.052-.169h19.911v-8.866H401.041l.418-9.1h10.1Zm-10.522,31.507H392l1.287,13.9,18.271,5.179v-9.248l-9.939-2.871Z" transform="translate(-375.854 -823.981)" fill="#ebebeb"/>
  <path id="Path_113964" data-name="Path 113964" d="M563.457,8.991H557.1v4.564H568V0h-4.548ZM583.706.072H572.624V4.817c1.48,1.48,2.252,2.191,4.431,4.334h-4.431v4.326h11.081V9.159l-4.431-4.334h4.431Z" transform="translate(-534.7)" fill="#231f20"/>
</svg>
