<svg id="Capa_1" enable-background="new 0 0 512 512" height="512" viewBox="0 0 512 512" width="512" xmlns="http://www.w3.org/2000/svg"><g><g><path d="m361 46.107c-3.512 0-213.081 0-210 0 0 3.021 0 33.021 0 30 10.137 0 94.513 0 90 0 0 3.333 0 63.246 0 60 3.021 0 33.021 0 30 0 0-3.333 0-63.246 0-60 10.137 0 94.513 0 90 0 0-3.021 0-33.021 0-30z" fill="#3d4b66"/><g><path d="m361 76.107c0-3.021 0-33.021 0-30-1.729 0-53.368 0-105 0v90c8.335 0 16.663 0 15 0 0-3.334 0-63.246 0-60" fill="#2e384d"/></g></g><path d="m512 466.107h-512v-360h512z" fill="#4d5e80"/><path d="m256 106.107h256v360h-256z" fill="#3d4b66"/><g><path d="m30 136.107h452v300h-452z" fill="#ff7f40"/></g><path d="m256 136.107h226v300h-226z" fill="#f25a3c"/><g id="hang_1_"><g><path d="m211 312.606v-142.998l119.15 71.499z" fill="#f3f5f9"/></g><g><path d="m136 346.107h315v30h-315z" fill="#f3f5f9"/></g><g><path d="m106 406.107c-24.814 0-45-20.186-45-45s20.186-45 45-45 45 20.186 45 45-20.186 45-45 45z" fill="#f3f5f9"/></g></g><g fill="#e1e6f0"><path d="m256 285.603 74.15-44.496-74.15-44.497z"/><path d="m256 346.107h195v30h-195z"/></g></g></svg>